<?xml version="1.0" standalone="no"?><!DOCTYPE svg PUBLIC "-//W3C//DTD SVG 1.1//EN" "http://www.w3.org/Graphics/SVG/1.1/DTD/svg11.dtd"><svg t="1620571962985" class="icon" viewBox="0 0 1024 1024" version="1.1" xmlns="http://www.w3.org/2000/svg" p-id="929" xmlns:xlink="http://www.w3.org/1999/xlink" width="200" height="200"><defs><style type="text/css"></style></defs><path d="M957.8 407.2c-6.6-19.8-25-32.8-49.2-34.7L667 352.8c-2.5-0.6-7.2-3.9-8.6-6.2l-97.9-227.5C551 96.9 532.9 83.6 512 83.6h-0.1c-20.8 0-39 13.2-48.6 35.4L365 345.9c-1.4 2.3-6.2 5.7-8.8 6.3l-240.9 20.2c-24.2 2-42.5 15.1-49.1 34.8-6.6 19.8 0.3 41.2 18.4 57.4l186.3 166c1.7 2 3.5 7.7 3.2 10.3l-55.6 232.8c-5.7 23.8 1 45.3 18 57.7 8.3 6.1 18 9.1 28.2 9.1 10.5 0 21.6-3.2 32.2-9.7l210.2-128c2.3-1 7.8-1 10 0l210 128c20.9 12.7 43.5 13 60.4 0.6 16.9-12.3 23.7-33.9 18-57.6L750 640.9c-0.3-2.7 1.5-8.3 3.3-10.4l186.1-166c18.2-16 25-37.5 18.4-57.3zM699.9 571c-23.3 20.8-35 57.9-27.7 88.3l40.2 168.8-153.9-93.8c-13.5-8.2-30-12.3-46.4-12.3-16.5 0-33 4.1-46.4 12.3l-154 93.8L352 659.3c7.3-30.4-4.4-67.5-27.7-88.3L184.9 446.8l178.2-15c31.1-2.6 62.8-25.3 75.2-54l73.6-169.6 73.2 170.2c12.4 28.8 44 51.5 75.2 54.1l178.6 14.6-139 123.9z" p-id="930"></path></svg>