<?xml version="1.0" standalone="no"?><!DOCTYPE svg PUBLIC "-//W3C//DTD SVG 1.1//EN" "http://www.w3.org/Graphics/SVG/1.1/DTD/svg11.dtd"><svg t="1620571959438" class="icon" viewBox="0 0 1024 1024" version="1.1" xmlns="http://www.w3.org/2000/svg" p-id="791" xmlns:xlink="http://www.w3.org/1999/xlink" width="200" height="200"><defs><style type="text/css"></style></defs><path d="M929.4 872.9L775.4 719c23.3-28.6 42.4-60.2 56.8-94.4 20.3-48.1 30.7-99.2 30.7-151.8S852.6 369.1 832.3 321c-19.6-46.4-47.8-88.1-83.6-124-35.8-35.8-77.5-63.9-124-83.6-48.1-20.3-99.2-30.7-151.8-30.7S369.2 93 321.1 113.4c-46.4 19.6-88.1 47.8-124 83.6s-63.9 77.5-83.6 124c-20.3 48.1-30.7 99.2-30.7 151.8s10.3 103.7 30.7 151.8c19.6 46.4 47.8 88.1 83.6 124s77.5 63.9 124 83.6c48.1 20.3 99.2 30.7 151.8 30.7s103.7-10.3 151.8-30.7c34.1-14.4 65.6-33.4 94.1-56.6l153.9 153.9c7.8 7.8 18 11.7 28.3 11.7s20.5-3.9 28.3-11.7c15.7-15.7 15.7-41 0.1-56.6z m-456.5-90.1c-82.8 0-160.7-32.2-219.2-90.8s-90.8-136.4-90.8-219.2 32.2-160.7 90.8-219.2 136.4-90.8 219.2-90.8 160.7 32.2 219.2 90.8c58.6 58.6 90.8 136.4 90.8 219.2S750.7 633.5 692.1 692c-58.5 58.6-136.4 90.8-219.2 90.8z" p-id="792"></path></svg>