<?xml version="1.0" standalone="no"?><!DOCTYPE svg PUBLIC "-//W3C//DTD SVG 1.1//EN" "http://www.w3.org/Graphics/SVG/1.1/DTD/svg11.dtd"><svg t="1620571965538" class="icon" viewBox="0 0 1024 1024" version="1.1" xmlns="http://www.w3.org/2000/svg" p-id="1069" xmlns:xlink="http://www.w3.org/1999/xlink" width="200" height="200"><defs><style type="text/css"></style></defs><path d="M909.6 739.7c-21.7-51.7-52.8-98.2-92.4-138.1-39.6-39.9-85.8-71.2-137.2-93.2-6.9-2.9-13.8-5.7-20.8-8.2 7.1-5.7 13.9-11.7 20.3-18.3 44.7-45 69.3-104.8 69.3-168.4 0-63.6-24.6-123.4-69.3-168.4-44.7-45-104.2-69.8-167.5-69.8s-122.8 24.8-167.6 69.9c-44.7 45-69.3 104.8-69.3 168.4 0 63.6 24.6 123.4 69.3 168.4 6.5 6.5 13.3 12.6 20.3 18.3-7 2.6-13.9 5.3-20.8 8.2-51.4 21.9-97.5 53.2-137.2 93.2-39.6 39.9-70.7 86.3-92.4 138.1-22.5 53.6-33.9 110.4-33.9 169 0 22.1 17.9 40 40 40s40-17.9 40-40c0-94.7 36.6-183.8 103.1-250.7 66.4-66.9 154.6-103.7 248.4-103.7 93.8 0 182.1 36.8 248.4 103.7 66.5 67 103.1 156 103.1 250.7 0 22.1 17.9 40 40 40s40-17.9 40-40c0.1-58.7-11.3-115.5-33.8-169.1zM512 155.3c86.5 0 156.9 71 156.9 158.3 0 87.3-70.4 158.3-156.9 158.3s-156.9-71-156.9-158.3c0-87.3 70.4-158.3 156.9-158.3z" p-id="1070"></path></svg>